PathFileType	4	(X/Y/Z)	output.trc
DataRate	CameraRate	NumFrames	NumMarkers	Units	OrigDataRate	OrigDataStartFrame	OrigNumFrames
50	50	16	18	mm	50	114	1
Frame#	Time	K4ABT_JOINT_PELVIS			K4ABT_JOINT_SPINE_NAVEL			K4ABT_JOINT_SPINE_CHEST			K4ABT_JOINT_NECK			K4ABT_JOINT_CLAVICLE_LEFT			K4ABT_JOINT_SHOULDER_LEFT			K4ABT_JOINT_ELBOW_LEFT			K4ABT_JOINT_WRIST_LEFT			K4ABT_JOINT_HAND_LEFT			K4ABT_JOINT_HANDTIP_LEFT			K4ABT_JOINT_THUMB_LEFT			K4ABT_JOINT_CLAVICLE_RIGHT			K4ABT_JOINT_SHOULDER_RIGHT			K4ABT_JOINT_ELBOW_RIGHT			K4ABT_JOINT_WRIST_RIGHT			K4ABT_JOINT_HAND_RIGHT			K4ABT_JOINT_HANDTIP_RIGHT			K4ABT_JOINT_THUMB_RIGHT		
		X1	Y1	Z1	X2	Y2	Z2	X3	Y3	Z3	X4	Y4	Z4	X5	Y5	Z5	X6	Y6	Z6	X7	Y7	Z7	X8	Y8	Z8	X9	Y9	Z9	X10	Y10	Z10	X11	Y11	Z11	X12	Y12	Z12	X13	Y13	Z13	X14	Y14	Z14	X15	Y15	Z15	X16	Y16	Z16	X17	Y17	Z17	X18	Y18	Z18
113	4066888.000000	248.743729	-133.656799	1728.500854	233.661896	-318.811371	1729.119629	221.884293	-466.681885	1721.926147	218.154114	-692.664551	1717.069336	184.426453	-654.912354	1710.582397	39.243774	-642.376526	1680.220215	-179.085846	-457.580200	1648.897217	-321.950470	-477.043488	1842.643066	-392.628815	-502.870667	1908.907593	-473.850586	-501.517639	1986.757446	-420.127808	-500.330078	1933.800171	253.388885	-655.695618	1722.989868	387.772034	-631.187561	1732.612549	589.001099	-441.097809	1829.224731	564.288208	-555.703186	2043.858032	591.559082	-654.474426	2009.860962	511.372375	-668.893188	2084.648438	505.378662	-589.966492	1928.983154
114	4100200.000000	252.639145	-134.939041	1726.732300	236.096069	-321.465363	1724.293579	223.102158	-470.495514	1718.269653	215.259827	-697.302429	1739.114868	182.328964	-659.787292	1726.647583	41.641594	-647.781311	1675.848755	-144.964615	-429.269745	1636.137817	-239.314240	-471.927673	1856.488281	-309.856201	-489.086182	1926.819824	-375.266663	-483.469940	2019.315063	-330.603241	-477.037872	1957.269653	251.161758	-660.078064	1742.530273	385.255493	-629.115723	1753.367920	562.862671	-416.632721	1856.648193	500.495789	-506.275238	2077.692627	527.871887	-609.906616	2058.822998	478.276031	-701.344055	2098.941406	457.215729	-551.761414	1958.562500
115	4133555.000000	255.779419	-136.864182	1726.654907	238.289185	-324.008484	1725.613281	224.464478	-473.133636	1713.335205	217.796570	-699.536743	1745.225952	184.873276	-662.878723	1729.766235	45.734077	-649.804443	1673.616577	-130.022842	-419.447235	1645.140015	-201.141174	-429.645386	1878.700562	-260.898773	-460.947540	1954.473755	-348.889069	-472.957733	2025.703247	-280.703430	-445.631500	1983.146118	253.379349	-661.692322	1748.002441	387.115662	-627.956360	1761.196533	516.723999	-390.662506	1883.249023	465.343719	-484.055847	2106.568115	490.440948	-588.018372	2084.339111	471.813049	-696.725098	2103.244629	414.757599	-527.120117	1988.850220
116	4166877.000000	262.661835	-141.933243	1726.590698	245.342255	-329.617615	1726.311890	231.783203	-479.373871	1716.598511	229.791855	-706.867126	1745.791382	197.374527	-671.094177	1727.058472	66.015289	-658.816833	1653.553589	-7.688113	-399.887909	1540.600098	-88.767021	-394.375397	1771.767822	-143.341064	-416.151215	1854.814697	-223.917389	-421.800079	1935.483276	-123.678207	-421.946045	1906.270508	263.568176	-667.736145	1752.787720	392.110931	-626.596191	1785.773682	441.822418	-333.900513	1804.440552	359.261810	-405.980835	2027.062622	427.093109	-488.894806	2049.918701	450.928131	-584.971008	2102.759033	415.986359	-522.610657	1981.504639
117	4200222.000000	265.283478	-156.389984	1722.317993	254.465851	-343.658447	1725.271606	247.348755	-493.127228	1715.147339	239.799805	-714.264771	1771.375000	211.394394	-681.867615	1743.088257	97.534554	-668.091675	1645.912598	73.209038	-417.972870	1499.997070	-65.920387	-376.044159	1695.878540	-94.448708	-404.347595	1788.820190	-108.474823	-412.676575	1901.268433	-94.567307	-407.365692	1832.743530	271.752014	-674.096741	1779.205200	384.313049	-611.852661	1829.999390	437.274414	-342.527557	1718.972656	306.662964	-338.122711	1928.546875	366.049713	-411.162537	1983.547852	419.748901	-485.022552	2047.851074	362.274963	-461.921661	1959.454834
118	4233555.000000	261.478516	-162.093445	1724.646851	256.914917	-349.258545	1725.761108	253.510452	-498.894562	1725.037598	248.171097	-720.979370	1775.626709	221.860901	-688.996765	1745.119019	113.304810	-685.415527	1641.638306	127.826599	-440.621307	1486.829468	-17.115250	-379.607086	1672.606445	-36.546841	-405.035980	1768.457397	-61.658615	-408.997864	1878.966309	-34.394550	-420.463562	1806.316650	277.510498	-680.001465	1787.661011	370.647766	-618.599670	1868.915161	466.811646	-339.249054	1863.544067	272.569214	-300.302185	2010.194580	282.520508	-390.276428	2070.561768	323.118469	-473.315338	2132.848633	306.849030	-424.388123	1974.182129
119	4266888.000000	262.359650	-165.981384	1727.704468	259.334808	-352.981323	1721.891113	255.795654	-502.519775	1723.514160	253.026184	-724.500183	1774.168579	227.576767	-693.175842	1742.327393	123.569328	-695.403381	1634.361206	161.128052	-452.897614	1480.143921	9.685308	-391.459747	1660.325073	2.469638	-412.905212	1758.751221	-13.971954	-407.800201	1870.765137	21.928417	-420.096191	1800.509033	280.751495	-682.870239	1787.582520	363.331848	-619.862549	1878.330933	435.944977	-336.581482	1919.445435	231.926971	-287.087524	2048.322998	232.210327	-376.810303	2109.760010	263.127655	-461.062195	2175.749268	259.725525	-406.033264	1992.047729
120	4300211.000000	261.966187	-171.561127	1731.125488	259.454254	-358.765533	1719.828125	254.524857	-508.525024	1725.465942	258.361084	-731.096008	1775.907349	232.301331	-700.500732	1743.655151	131.992783	-704.237976	1631.802612	171.498230	-465.343842	1471.261230	17.186209	-368.949829	1633.600098	7.053111	-412.763184	1724.298584	-13.788380	-407.355499	1835.839233	23.699324	-408.656433	1776.328369	284.554474	-688.494507	1789.818726	360.052399	-622.694275	1885.140137	410.984741	-338.572510	1950.784668	206.775558	-274.547424	2073.959717	198.844421	-364.258148	2135.363525	221.778351	-450.680084	2202.247803	225.747208	-390.673004	2007.976074
121	4333555.000000	263.756348	-178.064529	1738.285400	263.837433	-365.763153	1720.349487	257.429413	-516.164307	1728.148560	269.891022	-741.852539	1767.631714	244.374878	-710.744873	1735.000610	143.796585	-711.823059	1622.265869	183.212265	-461.705872	1476.706787	27.500555	-349.513062	1629.202759	7.414631	-404.733551	1712.295532	-14.335292	-406.716736	1824.388428	25.015116	-404.747742	1769.038574	292.828278	-698.571655	1785.624634	347.389557	-631.573608	1894.495239	360.787018	-347.062988	1980.703857	151.347519	-267.589081	2087.653809	140.376495	-349.560730	2159.540283	160.226334	-427.647919	2237.698975	171.357132	-389.942810	2032.734375
122	4366866.000000	264.148071	-182.241241	1747.563965	261.485016	-370.808899	1734.372559	250.650909	-521.080505	1746.313721	262.936554	-748.398254	1779.496826	239.506027	-716.411621	1745.948486	154.202515	-720.861206	1620.850586	215.922134	-459.089111	1505.036499	20.649836	-444.629456	1653.572754	-1.473285	-499.756531	1736.536865	-35.365585	-547.593018	1834.889038	-41.200260	-518.452759	1741.840576	283.968445	-705.390686	1800.600586	330.756470	-644.678772	1916.982300	348.507233	-363.777954	2015.985474	128.596542	-285.173187	2102.025635	113.497841	-364.488770	2176.533203	128.570221	-438.846252	2259.661133	155.899582	-409.507996	2054.287598
123	4400222.000000	262.158661	-183.175140	1761.347046	262.590454	-370.772491	1748.027710	253.426910	-520.674072	1755.206421	259.623627	-748.037964	1780.640625	241.085281	-714.692139	1745.795532	168.423645	-708.021729	1613.942749	258.658081	-451.423065	1509.647217	60.761810	-446.224640	1653.141479	38.712250	-514.690186	1724.768311	-7.915367	-537.488281	1826.164062	-2.491087	-534.372986	1724.117676	277.943329	-706.338196	1805.832764	307.923004	-656.151123	1931.538818	172.286041	-437.255981	2079.158447	-34.646854	-572.853027	2069.365967	-85.889359	-661.992004	2106.437256	-146.488922	-742.864197	2154.637451	-102.475075	-677.567810	2023.724609
124	4433544.000000	252.985031	-183.028336	1776.525879	257.317230	-370.430511	1760.897339	250.724442	-520.662964	1761.638184	261.799225	-748.578186	1779.797729	247.553619	-714.477905	1743.673584	187.246887	-704.090393	1605.933228	271.074707	-437.974152	1521.986450	62.249901	-388.749847	1639.333984	41.939705	-475.223877	1688.501099	-4.026912	-517.467468	1783.800781	15.161905	-499.355011	1709.904297	274.386841	-707.339417	1808.969360	292.867645	-659.027222	1937.618408	112.815056	-473.942688	2084.108398	-87.679222	-603.239441	2017.705933	-105.958504	-708.257141	2041.936157	-192.937531	-753.826782	2095.771729	-128.053406	-691.362610	1923.705322
125	4466888.000000	235.341980	-182.081894	1793.097046	238.800369	-368.710388	1775.702515	232.479904	-518.350403	1770.252319	246.792679	-745.952698	1776.406982	237.860413	-710.013367	1740.610962	213.733795	-691.009460	1593.569336	338.993134	-432.531952	1550.898071	111.792389	-496.815613	1611.285645	81.301285	-569.975281	1674.185181	5.696110	-565.069275	1758.754761	35.385475	-587.795837	1656.747192	253.119324	-706.560303	1809.574219	255.773987	-667.006348	1941.957642	79.277260	-473.824432	2080.058105	-99.850014	-585.914001	1952.535645	-88.749779	-691.251892	1978.037598	-149.239273	-778.354858	2012.822632	-91.098801	-665.749207	1844.526978
126	4500222.000000	220.241623	-184.398880	1807.780151	226.680817	-373.102295	1792.463379	224.235214	-524.346130	1785.096558	241.979660	-754.174744	1782.688599	238.734711	-716.166748	1747.283813	237.799347	-684.468262	1598.844727	360.237000	-418.630096	1577.948120	129.111176	-499.661743	1603.739990	101.548897	-582.356689	1657.180786	17.452337	-601.445618	1732.858887	49.774727	-595.094543	1624.240112	241.576645	-716.059692	1818.683594	211.838013	-690.234375	1952.653320	54.587929	-475.862732	2089.413330	-91.424126	-537.247498	1896.778564	-107.521347	-644.057739	1918.041504	-93.846916	-751.269287	1950.243896	-60.208145	-617.171936	1791.344727
127	4533555.000000	210.934357	-180.837189	1820.991699	218.468033	-370.403290	1803.837524	218.617294	-522.296936	1792.896362	234.973099	-753.415833	1785.638184	236.697800	-714.112427	1751.124268	259.374542	-675.724670	1605.146118	380.895325	-406.852295	1605.984741	148.409210	-491.341003	1594.127930	139.907120	-586.999146	1630.845703	53.037262	-629.457214	1693.789429	74.585449	-599.858765	1605.275513	230.080719	-716.187561	1822.643799	177.676682	-683.513123	1948.752686	84.040855	-432.286438	2084.779053	-42.791344	-515.694580	1885.159668	-102.416336	-594.517029	1935.030151	-134.836441	-679.972778	2002.162720	-37.492672	-635.437683	1819.269409
128	4566866.000000	187.031647	-172.137344	1828.538086	202.827103	-362.384735	1812.254517	218.510178	-514.156128	1798.806152	231.876419	-746.372009	1782.720703	242.823181	-705.237915	1751.753296	277.678436	-663.604858	1608.155151	389.541626	-390.228271	1636.888306	162.837753	-485.313049	1596.803223	152.726425	-583.843079	1626.528687	57.553886	-626.786011	1677.165039	98.447266	-597.270264	1585.532349	218.673508	-710.687744	1819.652588	149.484665	-680.399292	1938.993530	196.772385	-410.783539	2067.480713	20.050005	-406.808990	1887.545532	-53.035812	-478.637085	1931.100464	-99.199638	-567.166809	1986.251221	-41.727066	-497.789215	1788.540894
